<?xml version="1.0" encoding="UTF-8" standalone="no"?><!DOCTYPE svg PUBLIC "-//W3C//DTD SVG 1.1//EN" "http://www.w3.org/Graphics/SVG/1.1/DTD/svg11.dtd"><svg width="100%" height="100%" viewBox="0 0 1361 609" version="1.1" xmlns="http://www.w3.org/2000/svg" xmlns:xlink="http://www.w3.org/1999/xlink" xml:space="preserve" xmlns:serif="http://www.serif.com/" style="fill-rule:evenodd;clip-rule:evenodd;stroke-linejoin:round;stroke-miterlimit:2;"><g id="Ant-Design-Pro-3.0"><g><path d="M274.583,608.786l8.35,-0l-4.507,-36.799l-12.104,-0l8.261,36.799Zm9.388,0.919l-10.125,0l-8.674,-38.638l14.069,0l4.73,38.638Z" style="fill:#233452;fill-rule:nonzero;"/><path d="M152.551,608.786l8.349,-0l8.261,-36.799l-12.105,-0l-4.505,36.799Zm9.086,0.919l-10.126,0l4.731,-38.638l14.068,0l-8.673,38.638Z" style="fill:#233452;fill-rule:nonzero;"/><path d="M246.538,608.786l8.349,-0l-4.506,-36.799l-12.104,-0l8.261,36.799Zm9.388,0.919l-10.125,0l-8.674,-38.638l14.069,0l4.73,38.638Z" style="fill:#fff;fill-rule:nonzero;"/><path d="M180.596,608.786l8.35,-0l8.26,-36.799l-12.103,-0l-4.507,36.799Zm9.086,0.919l-10.125,0l4.731,-38.638l14.068,0l-8.674,38.638Z" style="fill:#fff;fill-rule:nonzero;"/><path d="M182.322,511.638l70.581,0l11.19,-0.923l19.911,5.542l6.568,11.7l4.927,24.223l-6.363,12.317l-93.113,3.078l-58.092,-10.264l2.052,-22.786l13.265,-19.089l15.884,-7.801l13.19,4.003Z" style="fill:#6f8bae;fill-rule:nonzero;"/><path d="M290.575,527.971l-0.003,-0.014l-6.568,-11.7l-19.911,-5.542l-11.19,0.923l-70.581,0l-13.19,-4.003l-15.884,7.801l-8.71,12.535l146.037,-0Z" style="fill:#85a8c7;fill-rule:nonzero;"/><path d="M112.196,494.525l29.315,-11.136c2.998,-0.99 4.681,-2.901 5.58,-6.125l10.597,-42.526c1.254,-4.957 4.293,-7.599 9.238,-7.775l16.089,-0l-8.238,45.725l-28.482,25.249l-24.453,0l-9.646,-3.412Z" style="fill:#7997b9;fill-rule:nonzero;"/><path d="M323.333,494.525l-29.317,-11.136c-2.997,-0.99 -4.681,-2.901 -5.578,-6.125l-10.598,-42.526c-1.253,-4.957 -4.294,-7.599 -9.237,-7.775l-16.089,-0l8.237,45.725l28.481,25.249l24.454,0l9.647,-3.412Z" style="fill:#7997b9;fill-rule:nonzero;"/><path d="M154.686,553.436l0,-24.093c0.038,-3.426 1.424,-6.504 4.56,-8.063l23.076,-3.477c4.156,-18.168 -8.903,-34.575 -24.172,-33.261l-28.726,10.104l-7.607,22.123l5.132,17.142l12.727,16.935l12.784,4.664l2.226,-2.074Z" style="fill:#7997b9;fill-rule:nonzero;"/><path d="M280.538,553.436l0,-24.093c-0.039,-3.426 -1.423,-6.504 -4.561,-8.063l-23.074,-3.477c-4.157,-18.168 8.902,-34.575 24.17,-33.261l28.727,10.104l3.838,11.449l-3.824,19.552c-0,0 -5.08,21.092 -5.08,21.708c0,0.617 -3.541,14.627 -3.541,14.627l-13.299,-0l-3.356,-8.546Z" style="fill:#7997b9;fill-rule:nonzero;"/><path d="M264.357,435.31c-1.608,-5.374 -5.394,-8.347 -11.334,-8.347l-70.563,-0c-5.941,-0 -9.727,2.973 -11.335,8.347l-12.642,53.424l23.839,29.069l70.581,0l24.096,-29.069l-12.642,-53.424Z" style="fill:#6f8bae;fill-rule:nonzero;"/><path d="M321.749,494.242l-12.678,-0c-2.487,-0 -4.118,0.113 -5.371,3.37l-16.822,50.975c-2.002,3.503 -4.696,5.427 -9.854,5.543l1.681,0l-120.247,0c-5.157,-0.116 -7.852,-2.04 -9.853,-5.543l-16.823,-50.975c-1.252,-3.257 -2.884,-3.37 -5.37,-3.37l-12.677,-0c-2.644,-0 -3.773,2.026 -3.025,4.2l20.806,71.853c1.501,3.695 5.581,7.083 11.238,7.083l149.974,-0c5.658,-0 9.737,-3.388 11.239,-7.083l20.805,-71.853c0.748,-2.174 -0.381,-4.2 -3.023,-4.2Z" style="fill:#2e3a55;fill-rule:nonzero;"/><rect x="159.998" y="527.511" width="114.564" height="0.92" style="fill:#233452;fill-rule:nonzero;"/><path d="M129.585,495.078l-0.321,-0.862l21.435,-7.985l0.32,0.862l-21.434,7.985Z" style="fill:#233452;fill-rule:nonzero;"/><path d="M305.169,495.078l-21.434,-7.985l0.32,-0.862l21.435,7.985l-0.321,0.862Z" style="fill:#233452;fill-rule:nonzero;"/><path d="M169.82,461.133c-12.91,-3.988 -40.653,2.35 -43.658,9.149c-3.008,6.797 20.204,52.316 32.069,54.657c11.866,2.34 45.529,-5.115 45.724,-11.698c-0.476,-15.398 -21.225,-48.12 -34.135,-52.108Z" style="fill:#c99867;fill-rule:nonzero;"/><path d="M161.238,523.682l-0.864,-0.316c1.664,-4.564 -4.489,-21.23 -13.167,-35.667c-6.719,-11.175 -13.036,-17.93 -17.334,-18.529l0.128,-0.91c6.494,0.906 14.747,13.565 17.995,18.966c7.976,13.27 15.2,31.083 13.242,36.456Z" style="fill:#233452;fill-rule:nonzero;"/></g><g><rect x="1144.43" y="33.249" width="177.999" height="248.241" style="fill:#2e3a55;fill-rule:nonzero;"/><rect x="1152.84" y="41.126" width="161.182" height="232.489" style="fill:#fff;fill-rule:nonzero;"/><rect x="1189.65" y="94.227" width="87.55" height="126.286" style="fill:#dfd4c4;fill-rule:nonzero;"/><path d="M1250.62,220.513c4.552,-6.793 7.213,-14.953 7.213,-23.727c-0,-8.626 -2.578,-16.658 -6.993,-23.383l-36.843,22.114l11.44,-40.192c-3.313,-0.826 -6.774,-1.272 -10.337,-1.272c-9.525,-0 -18.328,3.135 -25.442,8.423l-0,58.037l60.962,0Z" style="fill:#dfd4c4;fill-rule:nonzero;"/><rect x="1214.3" y="115.134" width="6.39" height="6.391" style="fill:#dfd4c4;fill-rule:nonzero;"/><rect x="1202.49" y="103.324" width="10.488" height="10.488" style="fill:#dfd4c4;fill-rule:nonzero;"/><path d="M1201.17,115.134l-0,-13.132l13.131,-0l0,11.81l7.712,0l-0,9.035l-9.033,-0l-0,-7.713l-11.81,-0Zm24.624,38.919l2.436,-8.552l-12.6,0l-0,-6.141l14.348,0l9.348,-32.843l37.878,34.538l-0,-46.828l-87.55,0l-0,66.628c7.193,-5.107 15.969,-8.124 25.442,-8.124c3.69,0 7.273,0.462 10.698,1.322Z" style="fill:#dfd4c4;fill-rule:nonzero;"/><path d="M1271.24,209.133l-7.951,0l0,-7.952l7.951,-0l0,7.952Zm5.962,-51.557l-25.235,15.147c4.535,6.924 7.181,15.188 7.181,24.063c0,8.733 -2.564,16.872 -6.964,23.727l25.018,0l-0,-62.937Z" style="fill:#dfd4c4;fill-rule:nonzero;"/><path d="M1240.02,108.931l-8.661,30.429l30.91,0l0,6.141l-32.66,0l-2.532,8.897c9.905,2.804 18.4,8.987 24.156,17.227l25.976,-15.591l-0,-13.192l-37.189,-33.911Z" style="fill:#dfd4c4;fill-rule:nonzero;"/><rect x="1264.61" y="202.502" width="5.308" height="5.309" style="fill:#dfd4c4;fill-rule:nonzero;"/><path d="M1260.94,140.682l-29.965,-0l-0.998,3.498l30.963,-0l0,-3.498Z" style="fill:#dfd4c4;fill-rule:nonzero;"/><path d="M1229.6,140.682l-12.648,-0l-0,3.498l11.653,-0l0.995,-3.498Z" style="fill:#dfd4c4;fill-rule:nonzero;"/><path d="M1226.71,155.671l-10.531,36.993l33.913,-20.355c-5.583,-7.958 -13.801,-13.928 -23.382,-16.638Z" style="fill:#dfd4c4;fill-rule:nonzero;"/><path d="M1285.93,150.798l-8.724,5.236l-0,1.542l10.927,-6.557l-10.927,-9.964l-0,1.787l8.724,7.956Z" style="fill:#fff;fill-rule:nonzero;"/><path d="M1216.18,192.664l10.531,-36.993c9.581,2.71 17.799,8.68 23.382,16.638l-33.913,20.355Zm0.774,-48.484l-0,-3.498l12.648,-0l-0.995,3.498l-11.653,-0Zm14.025,-3.498l29.965,-0l0,3.498l-30.963,-0l0.998,-3.498Zm20.992,32.041l25.235,-15.147l-0,-1.542l-25.976,15.591c-5.756,-8.24 -14.251,-14.423 -24.156,-17.227l2.532,-8.897l32.66,0l0,-6.141l-30.91,0l8.661,-30.429l37.189,33.911l-0,-1.787l-37.878,-34.538l-9.348,32.843l-14.348,0l-0,6.141l12.6,0l-2.436,8.552c-3.425,-0.86 -7.008,-1.322 -10.698,-1.322c-9.473,0 -18.249,3.017 -25.442,8.124l-0,1.621c7.114,-5.288 15.917,-8.423 25.442,-8.423c3.563,-0 7.024,0.446 10.337,1.272l-11.44,40.192l36.843,-22.114c4.415,6.725 6.993,14.757 6.993,23.383c-0,8.774 -2.661,16.934 -7.213,23.727l1.57,0c4.4,-6.855 6.964,-14.994 6.964,-23.727c0,-8.875 -2.646,-17.139 -7.181,-24.063Z" style="fill:#fff;fill-rule:nonzero;"/><path d="M1264.61,202.502l5.308,0l-0,5.31l-5.308,-0l0,-5.31Zm-1.322,6.631l7.951,0l0,-7.952l-7.951,-0l0,7.952Z" style="fill:#fff;fill-rule:nonzero;"/><path d="M1202.49,113.812l0,-10.488l10.489,-0l-0,10.488l-10.489,0Zm11.81,1.322l6.39,-0l-0,6.391l-6.39,0l0,-6.391Zm7.712,7.713l-0,-9.035l-7.712,0l0,-11.81l-13.131,-0l-0,13.132l11.81,-0l-0,7.713l9.033,-0Z" style="fill:#fff;fill-rule:nonzero;"/></g><g><path d="M192.827,97.333c-6.267,0 -11.363,5.097 -11.363,11.361c-0,6.265 5.096,11.362 11.363,11.362c6.263,-0 11.36,-5.097 11.36,-11.362c-0,-6.264 -5.097,-11.361 -11.36,-11.361Zm-0,23.81c-6.865,-0 -12.45,-5.584 -12.45,-12.449c-0,-6.864 5.585,-12.448 12.45,-12.448c6.863,0 12.446,5.584 12.446,12.448c0,6.865 -5.583,12.449 -12.446,12.449Z" style="fill:#fff;fill-rule:nonzero;"/><path d="M192.827,108.694c-2.936,0 -5.338,-2.401 -5.338,-5.337l0,-16.001c0,-2.936 2.402,-5.338 5.338,-5.338c2.934,0 5.335,2.402 5.335,5.338l0,16.001c0,2.936 -2.401,5.337 -5.335,5.337Z" style="fill:#2e3a55;fill-rule:nonzero;"/><path d="M291.276,112.42c-29.126,-11.179 -62.699,-17.561 -98.449,-17.561c-35.753,0 -69.324,6.382 -98.451,17.561l196.9,0Z" style="fill:#636363;fill-rule:nonzero;"/><rect x="192.283" y="1.448" width="1.087" height="80.571" style="fill:#233452;fill-rule:nonzero;"/></g><g><rect x="417.822" y="452.057" width="26.307" height="51.598" style="fill:#fff;fill-rule:nonzero;"/><rect x="452.306" y="439.968" width="26.305" height="63.687" style="fill:#fff;fill-rule:nonzero;"/><rect x="435.42" y="464.899" width="26.307" height="38.757" style="fill:#f3e9dc;fill-rule:nonzero;"/><rect x="430.408" y="448.845" width="1.133" height="3.212" style="fill:#233452;fill-rule:nonzero;"/><rect x="464.892" y="436.756" width="1.133" height="3.212" style="fill:#233452;fill-rule:nonzero;"/><rect x="448.008" y="461.688" width="1.133" height="3.21" style="fill:#233452;fill-rule:nonzero;"/><rect x="407.233" y="503.655" width="85.02" height="3.671" style="fill:#7997b9;fill-rule:nonzero;"/><path d="M532.419,500.756l0,-7.537c0,-3.612 2.957,-6.57 6.571,-6.57l-25.733,-0c-3.614,-0 -6.57,2.958 -6.57,6.57l-0,7.537c-0,3.612 2.956,6.57 6.57,6.57l25.733,0c-3.614,0 -6.571,-2.958 -6.571,-6.57Z" style="fill:#6f8bae;fill-rule:nonzero;"/><path d="M538.99,486.649c-3.614,-0 -6.571,2.958 -6.571,6.57l0,7.537c0,3.612 2.957,6.57 6.571,6.57l48.848,0l0,-20.677l-48.848,-0Z" style="fill:#7997b9;fill-rule:nonzero;"/><path d="M539.488,488.587c-2.937,0 -5.339,2.404 -5.339,5.339l0,6.123c0,2.936 2.402,5.339 5.339,5.339l48.35,0l0,-16.801l-48.35,0Z" style="fill:#fff;fill-rule:nonzero;"/><rect x="545.332" y="490.571" width="40.059" height="1.133" style="fill:#6f8bae;fill-rule:nonzero;"/><rect x="552.241" y="497.401" width="35.598" height="1.133" style="fill:#6f8bae;fill-rule:nonzero;"/><rect x="541.602" y="497.401" width="5.706" height="1.133" style="fill:#6f8bae;fill-rule:nonzero;"/><rect x="544.32" y="501.573" width="29.784" height="1.133" style="fill:#6f8bae;fill-rule:nonzero;"/><path d="M552.659,607.681l2.768,-0l-13.579,-93.464l-7.353,-0l18.164,93.464Zm4.078,1.133l-5.012,-0l-18.605,-95.73l9.709,-0l13.908,95.73Z" style="fill:#233452;fill-rule:nonzero;"/><path d="M427.335,607.681l2.766,-0l18.165,-93.464l-7.353,-0l-13.578,93.464Zm3.7,1.133l-5.01,-0l13.908,-95.73l9.708,-0l-18.606,95.73Z" style="fill:#233452;fill-rule:nonzero;"/><path d="M490.081,607.681l2.704,-0l2.216,-93.464l-7.241,-0l2.321,93.464Zm3.81,1.133l-4.915,-0l-2.376,-95.73l9.56,-0l-0.012,0.579l-2.257,95.151Z" style="fill:#fff;fill-rule:nonzero;"/><rect x="386.46" y="507.326" width="209.84" height="9.345" style="fill:#2e3a55;fill-rule:nonzero;"/></g><g><path d="M979.857,428.723c0,-0 10.556,-7.784 5.789,-11.942c-11.199,-9.326 -40.138,22.576 -39.389,25.911c0.75,3.335 35.882,9.728 41.894,-6.36c3.887,-9.868 -8.294,-7.609 -8.294,-7.609Z" style="fill:#5d8c78;fill-rule:nonzero;"/><path d="M979.857,428.723c0,-0 -8.828,0.693 -33.6,13.969c0.75,3.335 35.882,9.728 41.894,-6.36c3.887,-9.868 -8.294,-7.609 -8.294,-7.609Z" style="fill:#70aa8f;fill-rule:nonzero;"/><path d="M957.756,437.166l-0.29,-0.597c26.464,-12.865 43.237,-13.052 49.853,-0.56l-0.587,0.31c-6.416,-12.115 -22.894,-11.831 -48.976,0.847Z" style="fill:#32675e;fill-rule:nonzero;"/><path d="M947.656,442.433l-0.322,-0.582c2.095,-1.159 4.155,-2.261 6.124,-3.275l0.305,0.59c-1.964,1.011 -4.018,2.11 -6.107,3.267Z" style="fill:#32675e;fill-rule:nonzero;"/><path d="M1020.56,434.434l-18.181,-0c0,-0 -12.424,51.616 -11.313,58.989c1.112,7.373 5.656,11.312 5.656,11.312l29.495,-0c-0,-0 4.545,-3.939 5.656,-11.312c1.111,-7.373 -11.313,-58.989 -11.313,-58.989Z" style="fill:#c99867;fill-rule:nonzero;"/><rect x="1001.78" y="436.535" width="19.38" height="0.664" style="fill:#233452;fill-rule:nonzero;"/><rect x="991.015" y="492.475" width="40.861" height="0.664" style="fill:#233452;fill-rule:nonzero;"/><rect x="987.374" y="504.735" width="48.199" height="7.652" style="fill:#2e3a55;fill-rule:nonzero;"/><path d="M988.184,612.097l-0.663,-0.033l5.124,-101.663l0.663,0.032l-5.124,101.664Z" style="fill:#233452;fill-rule:nonzero;"/><path d="M1034.76,612.097l-5.123,-101.664l0.664,-0.032l5.123,101.663l-0.664,0.033Z" style="fill:#233452;fill-rule:nonzero;"/><rect x="988.886" y="591.244" width="45.174" height="0.664" style="fill:#233452;fill-rule:nonzero;"/><rect x="989.629" y="576.497" width="43.688" height="0.664" style="fill:#233452;fill-rule:nonzero;"/><path d="M1045.68,439.213c-0,0 -10.466,-7.905 -13.095,-2.152c-5.754,13.39 25.232,37.476 28.216,35.81c2.983,-1.667 6.947,-42.588 -10.186,-43.773c-10.567,-0.921 -4.935,10.115 -4.935,10.115Z" style="fill:#5d8c78;fill-rule:nonzero;"/><path d="M1045.68,439.213c-0,0 -10.466,-7.905 -13.095,-2.152c-5.754,13.39 25.232,37.476 28.216,35.81c-0.858,-7.862 -9.787,-30.423 -15.121,-33.658Z" style="fill:#70aa8f;fill-rule:nonzero;"/><path d="M1005.09,404.819c0,0 0.505,10.505 -7.879,9.496c-8.383,-1.011 -1.716,-31.139 -1.716,-31.139c0,-0 27.069,15.785 19.797,22.653c-5.164,5.543 -10.202,-1.01 -10.202,-1.01Z" style="fill:#70aa8f;fill-rule:nonzero;"/><path d="M1005.09,404.819l-9.595,-21.643c0,-0 27.069,15.785 19.797,22.653c-5.164,5.543 -10.202,-1.01 -10.202,-1.01Z" style="fill:#5d8c78;fill-rule:nonzero;"/><path d="M1023.39,414.018c7.41,-9.643 20.344,-15.43 35.358,-20.416c0,-0 -7.018,23.535 -16.211,26.818c-8.99,2.575 -19.147,-6.402 -19.147,-6.402Z" style="fill:#5d8c78;fill-rule:nonzero;"/><path d="M991.517,405.039c0,-0 -13.172,-14.773 -22.832,-21.863c0,-0 1.846,17.399 7.707,21.905c5.878,3.95 15.125,-0.042 15.125,-0.042Z" style="fill:#5d8c78;fill-rule:nonzero;"/><path d="M1019.12,419.815l-0.567,-0.346c8.078,-13.226 24.039,-20.398 40.085,-26.18l0.224,0.625c-15.93,5.74 -31.771,12.851 -39.742,25.901Z" style="fill:#32675e;fill-rule:nonzero;"/><path d="M1014.06,434.476l-0.659,-0.084c0.55,-4.285 1.741,-8.32 3.545,-11.992l0.596,0.293c-1.771,3.606 -2.942,7.571 -3.482,11.783Z" style="fill:#32675e;fill-rule:nonzero;"/><path d="M1011.14,434.46c-1.575,-19.815 -9,-37.52 -14.951,-48.883l0.589,-0.308c5.98,11.418 13.44,29.211 15.025,49.139l-0.663,0.052Z" style="fill:#32675e;fill-rule:nonzero;"/><path d="M1059.7,470.814c-0.46,-2.247 -0.99,-4.457 -1.574,-6.567l0.639,-0.177c0.589,2.126 1.123,4.349 1.585,6.612l-0.65,0.132Z" style="fill:#32675e;fill-rule:nonzero;"/><path d="M1056.42,458.776c-5.979,-17.18 -16.701,-29.046 -27.315,-30.231c-5.131,-0.571 -9.503,1.582 -12.296,6.065l-0.564,-0.351c2.935,-4.713 7.524,-6.98 12.934,-6.374c10.866,1.213 21.805,13.253 27.869,30.673l-0.628,0.218Z" style="fill:#32675e;fill-rule:nonzero;"/><path d="M996.36,446.384c-0,-0 2.218,-8.699 -3.47,-7.376c-13.034,3.345 -6.543,35.877 -3.642,37.118c2.901,1.241 28.427,-15.238 19.631,-28.43c-5.286,-8.242 -12.519,-1.312 -12.519,-1.312Z" style="fill:#5d8c78;fill-rule:nonzero;"/><path d="M996.36,446.384c-0,-0 -5.759,18.355 -7.112,29.742c2.901,1.241 28.427,-15.238 19.631,-28.43c-5.286,-8.242 -12.519,-1.312 -12.519,-1.312Z" style="fill:#70aa8f;fill-rule:nonzero;"/><path d="M1008.7,434.56c-5.426,-13.245 -13.28,-25.37 -23.345,-36.037l0.484,-0.456c10.12,10.727 18.018,22.921 23.477,36.241l-0.616,0.252Z" style="fill:#32675e;fill-rule:nonzero;"/><path d="M982.086,395.177c-4.151,-4.089 -8.727,-8.038 -13.602,-11.736l0.402,-0.53c4.897,3.716 9.495,7.683 13.666,11.793l-0.466,0.473Z" style="fill:#32675e;fill-rule:nonzero;"/><path d="M990.104,472.576l-0.653,-0.116c0.295,-1.663 7.358,-40.76 17.394,-43.307c1.664,-0.221 3.028,0.111 4.092,0.971c1.894,1.529 2.137,4.171 2.146,4.282l-0.662,0.056c-0.002,-0.025 -0.232,-2.477 -1.905,-3.824c-0.915,-0.738 -2.11,-1.019 -3.547,-0.834c-9.586,2.435 -16.792,42.369 -16.865,42.772Z" style="fill:#32675e;fill-rule:nonzero;"/><path d="M1056.79,529.627l-0.185,-0.638l19.836,-5.767l0.185,0.638l-19.836,5.767Z" style="fill:#233452;fill-rule:nonzero;"/></g></g></svg>