<?xml version="1.0" encoding="UTF-8" standalone="no"?><!DOCTYPE svg PUBLIC "-//W3C//DTD SVG 1.1//EN" "http://www.w3.org/Graphics/SVG/1.1/DTD/svg11.dtd"><svg width="100%" height="100%" viewBox="0 0 51 51" version="1.1" xmlns="http://www.w3.org/2000/svg" xmlns:xlink="http://www.w3.org/1999/xlink" xml:space="preserve" xmlns:serif="http://www.serif.com/" style="fill-rule:evenodd;clip-rule:evenodd;stroke-linejoin:round;stroke-miterlimit:2;"><rect id="Artboard1" x="0" y="0" width="50.424" height="50.424" style="fill:none;"/><clipPath id="_clip1"><rect x="0" y="0" width="50.424" height="50.424"/></clipPath><g clip-path="url(#_clip1)"><g><path id="polygon12" d="M-0,4.033c-0,-1.069 0.425,-2.095 1.181,-2.852c0.757,-0.756 1.783,-1.181 2.852,-1.181l42.358,0c1.069,-0 2.095,0.425 2.852,1.181c0.756,0.757 1.181,1.783 1.181,2.852l0,42.358c0,1.069 -0.425,2.095 -1.181,2.852c-0.757,0.756 -1.783,1.181 -2.852,1.181l-42.358,0c-1.069,0 -2.095,-0.425 -2.852,-1.181c-0.756,-0.757 -1.181,-1.783 -1.181,-2.852l-0,-42.358Z" style="fill:#008061;fill-rule:nonzero;"/><path id="path14" d="M31.089,45.771l0,1.961l-12.094,0l0,-1.965l-9.151,0c-0.894,0 -1.623,-0.934 -1.623,-2.087l-3.829,-38.729c-0,-1.153 0.894,-2.088 1.998,-2.088l36.981,-0c1.096,-0 1.99,0.935 1.99,2.088l-3.786,38.729c0,1.153 -0.728,2.087 -1.622,2.087l-8.864,0.004l0,-0Z" style="fill:#fff;fill-rule:nonzero;"/><path id="path16" d="M11.128,8.533l24.757,0c-2.437,0.914 -9.858,5.939 -11.711,9.317l-13.025,-0l-0.021,-9.317Z" style="fill:#f5821f;fill-rule:nonzero;"/><path id="path18" d="M30.859,35.227c-0.353,3.374 -0.368,7.483 -0.368,11.798l-10.731,0c0,-4.315 0.18,-8.424 0.534,-11.798l10.565,0Z" style="fill:#ed1b2d;fill-rule:nonzero;"/><path id="polygon20" d="M14.258,30.352l-0,1.308l-1.717,-0l0,1.308l1.717,-0l-0,1.499l-3.924,-0l0,-6.975l3.924,0l-0,1.554l-1.717,-0l0,1.306l1.717,0Z" style="fill:#008061;fill-rule:nonzero;"/><path id="polygon22" d="M23.38,30.352l0,1.308l-1.709,-0l0,1.308l1.709,-0l0,1.499l-3.916,-0l0,-6.975l3.916,0l0,1.554l-1.709,-0l0,1.306l1.709,0Z" style="fill:#008061;fill-rule:nonzero;"/><path id="polygon24" d="M33.433,30.352l0,1.308l-1.716,-0l-0,1.308l1.716,-0l0,1.499l-3.923,-0l0,-6.975l3.923,0l0,1.554l-1.716,-0l-0,1.306l1.716,0Z" style="fill:#008061;fill-rule:nonzero;"/><path id="polygon26" d="M17.2,27.492l-0,5.476l1.716,-0l0,1.499l-3.923,-0l0,-6.975l2.207,0Z" style="fill:#008061;fill-rule:nonzero;"/><path id="polygon28" d="M26.546,32.206l-0.836,-4.714l-1.926,0l1.096,6.975l2.834,-0l1.327,-6.975l-1.637,0l-0.858,4.714Z" style="fill:#008061;fill-rule:nonzero;"/><rect id="polygon30" x="34.364" y="27.492" width="2.12" height="6.974" style="fill:#008061;fill-rule:nonzero;"/><path id="path32" d="M36.484,29.563c0.115,-0.764 1.197,-0.559 1.197,-0.123l-0,5.027l2.127,-0l0,-5.912c0,-1.253 -1.766,-1.757 -3.31,-0.654l-0.014,1.662l-0,-0Z" style="fill:#008061;fill-rule:nonzero;"/><path id="path34" d="M31.854,26.511c0.216,-2.669 3.873,-7.027 7.414,-8.172l-0,-10.297c-9.743,4.359 -16.075,10.951 -17.445,18.443l10.031,0.026l0,0Z" style="fill:#ed1b2d;fill-rule:nonzero;"/></g></g></svg>